<svg version="1.1" xmlns="http://www.w3.org/2000/svg" xmlns:xlink="http://www.w3.org/1999/xlink" width="520.88962" height="287.10998" viewBox="0,0,520.88962,287.10998"><g transform="translate(-0.25,-73.14002)"><g data-paper-data="{&quot;isPaintingLayer&quot;:true}" fill="none" fill-rule="nonzero" stroke-width="12.5" stroke-linecap="round" stroke-linejoin="miter" stroke-miterlimit="10" stroke-dasharray="" stroke-dashoffset="0" style="mix-blend-mode: normal"><path d="M6.5,354h67.60145" stroke="#000000"/><path d="M207.21834,303.96794l-54.95955,-0.03894" stroke="#3b3b3b"/><path d="M207.0716,293.71785l-54.95955,-0.03894" stroke="#6a6a6a"/><path d="M14.40147,343.46471h67.60145" stroke="#464646"/><path d="M89.02645,332.92942h-67.60145" stroke="#7c7c7c"/><path d="M37.82411,123.83183l-0.97492,67.59442" stroke="#000000"/><path d="M47.26944,199.47883l0.97492,-67.59442" stroke="#464646"/><path d="M58.67726,139.93708l-0.97492,67.59442" stroke="#7c7c7c"/><path d="M147.89704,177.92728l54.95955,0.05392" stroke="#dcdcdc"/><path d="M190.41867,167.04642l-54.95955,-0.05392" stroke="#909090"/><path d="M222.94695,156.44394l-54.95955,-0.05392" stroke="#191919"/><path d="M337.85659,100.9812l-54.95955,-0.05392" stroke="#dcdcdc"/><path d="M270.45912,89.9925l54.95955,0.05392" stroke="#909090"/><path d="M315.94695,79.44394l-54.95955,-0.05392" stroke="#191919"/><path d="M426.49215,148.497l54.95955,0.05392" stroke="#909090"/><path d="M514.88962,136.8205l-40.86377,-0.04009" stroke="#dcdcdc"/><path d="M423.8842,137.67751l-40.86377,-0.04009" stroke="#191919"/><path d="M315.08218,297.04823l70.98942,0.0503" stroke="#6a6a6a"/><path d="M213.6783,203.25v79" stroke="#9e9e9e"/><path d="M249.64134,221.18006l82.9396,-0.31419" stroke="#dcdcdc"/></g></g></svg>