<svg version="1.1" xmlns="http://www.w3.org/2000/svg" xmlns:xlink="http://www.w3.org/1999/xlink" width="531.08117" height="333.05649" viewBox="0,0,531.08117,333.05649"><defs><radialGradient cx="66.4563" cy="325.81203" r="23.77849" gradientUnits="userSpaceOnUse" id="color-1"><stop offset="0" stop-color="#3a3a3a"/><stop offset="1" stop-color="#868686"/></radialGradient><radialGradient cx="54.19219" cy="308.27051" r="12.07222" gradientUnits="userSpaceOnUse" id="color-2"><stop offset="0" stop-color="#3a3a3a"/><stop offset="1" stop-color="#868686"/></radialGradient><radialGradient cx="72.22172" cy="271.36836" r="25.59526" gradientUnits="userSpaceOnUse" id="color-3"><stop offset="0" stop-color="#3a3a3a"/><stop offset="1" stop-color="#868686"/></radialGradient><radialGradient cx="78.71868" cy="304.24566" r="16.90105" gradientUnits="userSpaceOnUse" id="color-4"><stop offset="0" stop-color="#3a3a3a"/><stop offset="1" stop-color="#868686"/></radialGradient><radialGradient cx="53.11515" cy="301.42174" r="17.07544" gradientUnits="userSpaceOnUse" id="color-5"><stop offset="0" stop-color="#3a3a3a"/><stop offset="1" stop-color="#868686"/></radialGradient><radialGradient cx="63.73023" cy="305.76624" r="16.90105" gradientUnits="userSpaceOnUse" id="color-6"><stop offset="0" stop-color="#3a3a3a"/><stop offset="1" stop-color="#868686"/></radialGradient><radialGradient cx="62.42688" cy="293.6017" r="16.90105" gradientUnits="userSpaceOnUse" id="color-7"><stop offset="0" stop-color="#3a3a3a"/><stop offset="1" stop-color="#868686"/></radialGradient><radialGradient cx="77.19811" cy="297.94617" r="16.90105" gradientUnits="userSpaceOnUse" id="color-8"><stop offset="0" stop-color="#3a3a3a"/><stop offset="1" stop-color="#868686"/></radialGradient><radialGradient cx="50.03639" cy="292.73307" r="16.90944" gradientUnits="userSpaceOnUse" id="color-9"><stop offset="0" stop-color="#3a3a3a"/><stop offset="1" stop-color="#868686"/></radialGradient><radialGradient cx="50.2405" cy="279.97902" r="23.6363" gradientUnits="userSpaceOnUse" id="color-10"><stop offset="0" stop-color="#3a3a3a"/><stop offset="1" stop-color="#868686"/></radialGradient><radialGradient cx="76.76947" cy="282.37262" r="21.35923" gradientUnits="userSpaceOnUse" id="color-11"><stop offset="0" stop-color="#3a3a3a"/><stop offset="1" stop-color="#868686"/></radialGradient><radialGradient cx="63.0597" cy="284.45645" r="18.44513" gradientUnits="userSpaceOnUse" id="color-12"><stop offset="0" stop-color="#3a3a3a"/><stop offset="1" stop-color="#868686"/></radialGradient></defs><g transform="translate(-33.68534,-21.60743)"><g data-paper-data="{&quot;isPaintingLayer&quot;:true}" fill-rule="nonzero" stroke="none" stroke-linejoin="miter" stroke-miterlimit="10" stroke-dasharray="" stroke-dashoffset="0" style="mix-blend-mode: normal"><path d="M60.10571,296.00993h12.32164v58.65399h-12.32164z" fill="url(#color-1)" stroke-width="0" stroke-linecap="butt"/><path d="M53.14783,305.89804c2.67654,-0.20001 5.87499,0.41729 7.89734,1.09128c2.02236,0.67422 3.27418,1.6052 3.27418,2.63253c0,1.02734 -1.66733,2.37843 -3.27418,2.63253c-1.4371,0.22431 -2.75222,-1.16623 -4.17348,-1.03346c-0.71652,0.05891 -0.42423,1.07661 -1.08611,1.40188c-0.67092,0.43505 -1.68413,0.74217 -2.63775,0.72287c-1.97609,-0.04032 -3.80389,-0.12356 -5.12027,-0.87619c-1.74709,-0.84357 -3.26332,-2.22246 -3.41351,-3.57051c-0.04995,-0.61552 1.54168,-0.61639 2.32738,-0.93094c1.98729,-0.78947 3.86133,-1.89567 6.20639,-2.07001z" fill="url(#color-2)" stroke-width="0.61824" stroke-linecap="round"/><path d="M65.77695,265.23945c1.86461,-0.16039 1.44458,2.46992 3.48471,2.66699c2.94355,0.27883 6.15834,-2.45932 8.55328,-1.58886c3.92688,1.43263 4.76133,4.96404 7.41219,6.99174c2.08831,1.57748 6.68488,2.77216 6.68488,4.54636c0,1.77424 -3.4042,4.10757 -6.68488,4.54641c-2.93408,0.38735 -5.61919,-2.01406 -8.52094,-1.78481c-1.46296,0.10174 -0.8661,1.85931 -2.21755,2.42109c-1.36977,0.75129 -3.43839,1.28166 -5.38537,1.24838c-4.03462,-0.06959 -7.45469,-0.34729 -10.45402,-1.51318c-2.4678,-0.95899 -3.94339,-2.53574 -4.27666,-4.14236c-0.66084,-3.18072 -1.6112,-6.778 0.6336,-9.6466c2.05341,-2.17901 6.85971,-3.40845 10.77078,-3.74515z" fill="url(#color-3)" stroke-width="1.20104" stroke-linecap="round"/><path d="M77.25656,300.92413c3.74711,-0.28 8.22496,0.5842 11.05626,1.52782c2.83129,0.94392 4.58385,2.24727 4.58385,3.68555c0,1.43828 -2.33428,3.32982 -4.58385,3.68555c-2.01193,0.31401 -3.85312,-1.6327 -5.84289,-1.44683c-1.00314,0.08245 -0.59389,1.50727 -1.52056,1.96266c-0.93927,0.60906 -2.35774,1.03899 -3.69281,1.01201c-2.76657,-0.05643 -5.32546,-0.17295 -7.16839,-1.22666c-2.44595,-1.181 -4.56864,-3.11148 -4.77892,-4.99871c-0.06994,-0.86173 2.15833,-0.86299 3.25836,-1.30334c2.7822,-1.10523 5.40584,-2.65391 8.68895,-2.89802z" fill="url(#color-4)" stroke-width="0.86553" stroke-linecap="round"/><path d="M51.84139,298.10022c3.74711,-0.28 8.22496,0.5842 11.05626,1.52782c2.83129,0.94392 4.58385,2.24727 4.58385,3.68555c0,1.43828 -2.33428,3.32982 -4.58385,3.68555c-2.01193,0.31401 -3.85312,-1.6327 -5.84289,-1.44683c-1.00314,0.08245 -0.59389,1.50727 -1.52056,1.96266c-0.93927,0.60906 -2.35774,1.03899 -3.69281,1.01201c-2.76657,-0.05643 -4.93142,-0.52716 -7.16839,-1.22666c-1.92982,-0.61213 -4.77023,-0.80534 -5.10475,-2.07001c-0.38232,-1.70725 1.90854,-3.32122 3.58419,-4.23205c2.54543,-1.36312 5.40584,-2.65391 8.68895,-2.89802z" fill="url(#color-5)" stroke-width="0.86553" stroke-linecap="round"/><path d="M62.26813,302.44471c3.74711,-0.28 8.22496,0.5842 11.05626,1.52782c2.83129,0.94392 4.58385,2.24727 4.58385,3.68555c0,1.43828 -2.33428,3.32982 -4.58385,3.68555c-2.01193,0.31401 -3.85312,-1.6327 -5.84289,-1.44683c-1.00314,0.08245 -0.59389,1.50727 -1.52056,1.96266c-0.93927,0.60906 -2.35774,1.03899 -3.69281,1.01201c-2.76657,-0.05643 -5.32546,-0.17295 -7.16839,-1.22666c-2.44595,-1.181 -4.56864,-3.11148 -4.77892,-4.99871c-0.06994,-0.86173 2.15833,-0.86299 3.25836,-1.30334c2.7822,-1.10523 5.40584,-2.65391 8.68895,-2.89802z" fill="url(#color-6)" stroke-width="0.86553" stroke-linecap="round"/><path d="M60.96479,290.28018c3.74711,-0.28 8.22496,0.5842 11.05626,1.52782c2.83129,0.94392 4.58385,2.24727 4.58385,3.68555c0,1.43828 -2.33428,3.32982 -4.58385,3.68555c-2.01193,0.31401 -3.85312,-1.6327 -5.84289,-1.44683c-1.00314,0.08245 -0.59389,1.50727 -1.52056,1.96266c-0.93927,0.60906 -2.35774,1.03899 -3.69281,1.01201c-2.76657,-0.05643 -5.32546,-0.17295 -7.16839,-1.22666c-2.44595,-1.181 -4.56864,-3.11148 -4.77892,-4.99871c-0.06994,-0.86173 2.15833,-0.86299 3.25836,-1.30334c2.7822,-1.10523 5.40584,-2.65391 8.68895,-2.89802z" fill="url(#color-7)" stroke-width="0.86553" stroke-linecap="round"/><path d="M75.73601,294.62465c3.74711,-0.28 8.22496,0.5842 11.05626,1.52782c2.83129,0.94392 4.58385,2.24727 4.58385,3.68555c0,1.43828 -2.33428,3.32982 -4.58385,3.68555c-2.01193,0.31401 -3.85312,-1.6327 -5.84289,-1.44683c-1.00314,0.08245 -0.59389,1.50727 -1.52056,1.96266c-0.93927,0.60906 -2.35774,1.03899 -3.69281,1.01201c-2.76657,-0.05643 -5.32546,-0.17295 -7.16839,-1.22666c-2.44595,-1.181 -4.56864,-3.11148 -4.77892,-4.99871c-0.06994,-0.86173 2.15833,-0.86299 3.25836,-1.30334c2.7822,-1.10523 5.40584,-2.65391 8.68895,-2.89802z" fill="url(#color-8)" stroke-width="0.86553" stroke-linecap="round"/><path d="M48.58304,289.41128c3.74711,-0.28 8.22496,0.5842 11.05626,1.52782c2.83129,0.94392 4.58385,2.24727 4.58385,3.68555c0,1.43828 -2.33428,3.32982 -4.58385,3.68555c-2.01193,0.31401 -3.85312,-1.6327 -5.84289,-1.44683c-1.00314,0.08245 -0.59389,1.50727 -1.52056,1.96266c-0.93927,0.60906 -2.38077,0.96938 -3.69281,1.01201c-1.21255,0.02884 -2.376,-0.26097 -3.36697,-0.69c-1.4641,-0.63143 -2.30561,-1.91792 -3.47559,-2.82135c-1.70173,-0.94913 -4.66597,-1.33679 -5.10475,-2.71404c-0.25415,-0.78752 2.15833,-0.86299 3.25836,-1.30334c2.7822,-1.10523 5.40584,-2.65391 8.68895,-2.89802z" fill="url(#color-9)" stroke-width="0.86553" stroke-linecap="round"/><path d="M45.84792,276.11843c0.53302,-0.04448 0.72505,-0.30386 1.40422,-0.46525c2.55341,-0.60771 5.57105,-2.63019 7.73759,-1.69924c3.55239,1.53216 4.30725,5.30891 6.70531,7.47744c1.88916,1.68709 6.04737,2.96477 6.04737,4.86226c0,1.89745 -3.07958,4.39292 -6.04737,4.86226c-2.65426,0.4143 -5.08329,-2.15399 -7.70831,-1.90884c-1.32341,0.10883 -0.78353,1.98851 -2.00606,2.5893c-1.23918,0.80351 -3.11051,1.37073 -4.87181,1.3351c-3.64984,-0.07443 -6.74376,-0.37136 -9.45705,-1.61832c-2.23245,-1.02561 -4.46429,-2.75236 -3.86881,-4.43016c0.93767,-2.60144 5.62149,-3.59509 6.87787,-6.00797c0.6591,-1.26068 -3.23777,-2.62128 -2.17802,-3.68168c1.37272,-1.37272 4.87871,-0.74647 7.36506,-1.31489z" fill="url(#color-10)" stroke-width="1.14186" stroke-linecap="round"/><path d="M74.92167,278.17494c4.73551,-0.35386 10.39454,0.7383 13.97267,1.93085c3.57816,1.19291 5.79302,2.84003 5.79302,4.65771c0,1.81763 -2.95003,4.20814 -5.79302,4.65771c-2.5426,0.39687 -4.86946,-2.06335 -7.38412,-1.82851c-1.26772,0.10422 -0.7505,1.90483 -1.92165,2.4804c-1.18704,0.76966 -2.97965,1.31303 -4.66688,1.27893c-3.49635,-0.07129 -6.73019,-0.21857 -9.05928,-1.55024c-3.09114,-1.4925 -5.77376,-3.93218 -6.03948,-6.31726c-0.08841,-1.08902 2.72764,-1.09061 4.11782,-1.64711c3.51607,-1.39679 6.83178,-3.35398 10.98092,-3.66248z" fill="url(#color-11)" stroke-width="1.09383" stroke-linecap="round"/><path d="M58.64049,279.48797c1.27858,-0.13002 0.99054,2.00224 2.38947,2.16203c2.01844,0.22599 4.22283,-1.99364 5.86504,-1.28802c2.6927,1.16136 3.26487,4.02411 5.0826,5.66785c1.43195,1.27879 4.58385,2.24727 4.58385,3.68555c0,1.43828 -2.33428,3.32982 -4.58385,3.68555c-2.01193,0.31401 -3.85312,-1.6327 -5.84289,-1.44683c-1.00314,0.08245 -0.59389,1.50727 -1.52056,1.96266c-0.93927,0.60906 -2.35774,1.03899 -3.69281,1.01201c-2.76657,-0.05643 -5.1117,-0.28151 -7.16839,-1.22666c-1.69217,-0.7774 -2.70401,-2.05559 -2.93253,-3.35801c-0.45313,-2.57849 -1.1048,-5.4946 0.43445,-7.82005c1.40804,-1.76642 4.70376,-2.76308 7.3856,-3.03606z" fill="url(#color-12)" stroke-width="0.86553" stroke-linecap="round"/><text transform="translate(35.04783,252.25382) scale(0.41683,0.41683)" font-size="40" xml:space="preserve" fill="#000000" fill-rule="nonzero" stroke="none" stroke-width="1" stroke-linecap="butt" stroke-linejoin="miter" stroke-miterlimit="10" stroke-dasharray="" stroke-dashoffset="0" font-family="Sans Serif" font-weight="normal" text-anchor="start" style="mix-blend-mode: normal"><tspan x="0" dy="0">Hello Cube</tspan></text><text transform="translate(79.05576,38.95219) scale(0.39873,0.39873)" font-size="40" xml:space="preserve" fill="#000000" fill-rule="nonzero" stroke="none" stroke-width="1" stroke-linecap="butt" stroke-linejoin="miter" stroke-miterlimit="10" stroke-dasharray="" stroke-dashoffset="0" font-family="Sans Serif" font-weight="normal" text-anchor="start" style="mix-blend-mode: normal"><tspan x="0" dy="0">You can see </tspan><tspan x="0" dy="48px">something isn't right</tspan></text><text transform="translate(306.47506,81.27366) scale(0.32858,0.32858)" font-size="40" xml:space="preserve" fill="#000000" fill-rule="nonzero" stroke="none" stroke-width="1" stroke-linecap="butt" stroke-linejoin="miter" stroke-miterlimit="10" stroke-dasharray="" stroke-dashoffset="0" font-family="Sans Serif" font-weight="normal" text-anchor="start" style="mix-blend-mode: normal"><tspan x="0" dy="0">Everything is in </tspan><tspan x="0" dy="46.150000000000006px">Black &amp; White</tspan></text><text transform="translate(396.63646,247.96328) scale(0.34435,0.34435)" font-size="40" xml:space="preserve" fill="#000000" fill-rule="nonzero" stroke="none" stroke-width="1" stroke-linecap="butt" stroke-linejoin="miter" stroke-miterlimit="10" stroke-dasharray="" stroke-dashoffset="0" font-family="Sans Serif" font-weight="normal" text-anchor="start" style="mix-blend-mode: normal"><tspan x="0" dy="0">Exept for you</tspan></text><text transform="translate(506.51652,190.51052) scale(0.5,0.5)" font-size="40" xml:space="preserve" fill="#000000" fill-rule="nonzero" stroke="none" stroke-width="1" stroke-linecap="butt" stroke-linejoin="miter" stroke-miterlimit="10" stroke-dasharray="" stroke-dashoffset="0" font-family="Sans Serif" font-weight="normal" text-anchor="start" style="mix-blend-mode: normal"><tspan x="0" dy="0">Portal</tspan></text></g></g></svg>