<svg version="1.1" xmlns="http://www.w3.org/2000/svg" xmlns:xlink="http://www.w3.org/1999/xlink" width="693.69369" height="600.6006" viewBox="0,0,693.69369,600.6006"><defs><linearGradient x1="-110.6006" y1="157.20721" x2="583.09309" y2="157.20721" gradientUnits="userSpaceOnUse" id="color-1"><stop offset="0" stop-color="#a5a5a5"/><stop offset="1" stop-color="#dadada"/></linearGradient></defs><g transform="translate(110.6006,143.09309)"><g data-paper-data="{&quot;isPaintingLayer&quot;:true}" fill-rule="nonzero" stroke-linejoin="miter" stroke-miterlimit="10" stroke-dasharray="" stroke-dashoffset="0" style="mix-blend-mode: normal"><path d="M-110.6006,457.50751v-600.6006h693.69369v600.6006z" fill="url(#color-1)" stroke="none" stroke-width="12.5" stroke-linecap="butt"/><path d="M268.92048,313.55673c-4.14396,7.19983 -7.40478,4.80004 -12.45685,1.89225l-78.46836,-45.16358c-5.05315,-2.90841 -8.42501,-7.23129 -4.28192,-14.4296l37.58409,-63.88556c4.14396,-7.19983 9.32117,-7.42759 14.37431,-4.51918l78.46729,45.16297c5.05526,2.90963 8.24851,7.5404 4.10456,14.74023l-35.12677,60.32315z" fill="#a7a9ac" stroke="none" stroke-width="1" stroke-linecap="butt"/><path d="M175.11056,264.17921l43.83004,-76.15143l86.18087,49.60263l-43.83005,76.15143z" fill="#000000" stroke="none" stroke-width="0" stroke-linecap="butt"/><path d="M206.64829,209.40407l9.39215,-16.31817l86.18086,49.60263l-9.39215,16.31817z" fill="#ff0000" stroke="none" stroke-width="0" stroke-linecap="butt"/><path d="M289.76768,252.00611l12.22715,-9.53673l5.96007,38.31866l-12.22715,9.53672z" fill="#ff0000" stroke="none" stroke-width="0" stroke-linecap="butt"/><path d="M224.77062,234.98416c-1.99767,3.47079 -6.3225,4.72727 -9.6598,2.80644c-3.33729,-1.92083 -4.42328,-6.29161 -2.42562,-9.76238c1.99767,-3.47079 6.3225,-4.72728 9.6598,-2.80645c3.33729,1.92083 4.42328,6.29161 2.42562,9.76239z" fill="#ffffff" stroke="none" stroke-width="0" stroke-linecap="butt"/><path d="M271.23032,261.88687c-1.99767,3.47079 -6.3225,4.72727 -9.65979,2.80644c-3.33729,-1.92083 -4.42328,-6.2916 -2.42563,-9.76238c1.99767,-3.47079 6.3225,-4.72728 9.65979,-2.80645c3.33729,1.92083 4.42328,6.29161 2.42563,9.76238z" fill="#ffffff" stroke="none" stroke-width="0" stroke-linecap="butt"/><path d="M222.09233,233.51882c-1.10434,1.9187 -3.48881,2.61697 -5.32585,1.55963c-1.83705,-1.05734 -2.43104,-3.4699 -1.3267,-5.38861c1.10434,-1.9187 3.48881,-2.61697 5.32586,-1.55963c1.83705,1.05734 2.43104,3.4699 1.3267,5.38861z" fill="#ff0000" stroke="none" stroke-width="0" stroke-linecap="butt"/><path d="M268.56221,260.42147c-1.10434,1.9187 -3.48882,2.61697 -5.32586,1.55963c-1.83706,-1.05734 -2.43104,-3.46989 -1.32669,-5.3886c1.10434,-1.91871 3.4888,-2.61699 5.32585,-1.55964c1.83706,1.05735 2.43104,3.46991 1.3267,5.38861z" fill="#ff0000" stroke="none" stroke-width="0" stroke-linecap="butt"/><path d="M25.96385,68.76418" fill="none" stroke="#ffffff" stroke-width="2.5" stroke-linecap="round"/><path d="M200.93547,180.31352" fill="none" stroke="#ffffff" stroke-width="2.5" stroke-linecap="round"/><path d="M201.93547,252.31352" fill="none" stroke="#ffffff" stroke-width="2.5" stroke-linecap="round"/><text transform="translate(88.18399,64) scale(1.62676,1.62676)" font-size="40" xml:space="preserve" fill="#000000" fill-rule="nonzero" stroke="none" stroke-width="1" stroke-linecap="butt" stroke-linejoin="miter" stroke-miterlimit="10" stroke-dasharray="" stroke-dashoffset="0" font-family="Curly" font-weight="normal" text-anchor="start" style="mix-blend-mode: normal"><tspan x="0" dy="0">Color Ninja</tspan><tspan x="0" dy="46.15px">A game Demo</tspan></text><text transform="translate(88.18399,64) scale(1.62676,1.62676)" font-size="40" xml:space="preserve" fill="#000000" fill-rule="nonzero" stroke="none" stroke-width="1" stroke-linecap="butt" stroke-linejoin="miter" stroke-miterlimit="10" stroke-dasharray="" stroke-dashoffset="0" font-family="Curly" font-weight="normal" text-anchor="start" style="mix-blend-mode: normal"><tspan x="0" dy="0">Color Ninja</tspan><tspan x="0" dy="46.15px">A game Demo</tspan></text></g></g></svg>