<svg version="1.1" xmlns="http://www.w3.org/2000/svg" xmlns:xlink="http://www.w3.org/1999/xlink" width="128.78365" height="95.57935" viewBox="0,0,128.78365,95.57935"><g transform="translate(-183.82211,-132.21032)"><g data-paper-data="{&quot;isPaintingLayer&quot;:true}" fill-rule="nonzero" stroke-linejoin="miter" stroke-miterlimit="10" stroke-dasharray="" stroke-dashoffset="0" style="mix-blend-mode: normal"><path d="M295.12109,219.93133c0,8.30722 -4.02323,7.85396 -9.85236,7.85396h-90.53746c-5.83036,0 -10.90916,-2.0646 -10.90916,-10.37007l0.70535,-74.11768c0,-8.30722 4.37345,-11.08721 10.20381,-11.08721h90.53623c5.83281,0 10.91039,2.42055 10.91039,10.72777l-0.35267,69.80435z" fill="#a7a9ac" stroke="none" stroke-width="1" stroke-linecap="butt"/><path d="M189.1851,223.9321v-87.86418h99.43622v87.86418z" fill="#000000" stroke="none" stroke-width="0" stroke-linecap="butt"/><path d="M189.19473,160.72652v-18.82804h99.43622v18.82804z" fill="#ff0000" stroke="none" stroke-width="0" stroke-linecap="butt"/><path d="M282.48544,156.18633l5.83992,-14.36481l24.28039,30.23747l-5.83992,14.3648z" fill="#ff0000" stroke="none" stroke-width="0" stroke-linecap="butt"/><path d="M217.6616,173.85654c0,4.00463 -3.12153,7.25101 -6.97213,7.25101c-3.8506,0 -6.97213,-3.2464 -6.97213,-7.25101c0,-4.00463 3.12153,-7.25101 6.97213,-7.25101c3.8506,0 6.97213,3.2464 6.97213,7.25101z" fill="#ffffff" stroke="none" stroke-width="0" stroke-linecap="butt"/><path d="M271.3481,173.99709c0,4.00463 -3.12153,7.25101 -6.97213,7.25101c-3.8506,0 -6.97213,-3.2464 -6.97213,-7.25101c0,-4.00463 3.12153,-7.25101 6.97213,-7.25101c3.8506,0 6.97213,3.2464 6.97213,7.25101z" fill="#ffffff" stroke="none" stroke-width="0" stroke-linecap="butt"/><path d="M214.60938,173.92257c0,2.21382 -1.71829,4.00847 -3.83789,4.00847c-2.11961,0 -3.83789,-1.79465 -3.83789,-4.00847c0,-2.21382 1.71829,-4.00847 3.83789,-4.00847c2.11961,0 3.83789,1.79465 3.83789,4.00847z" fill="#ff0000" stroke="none" stroke-width="0" stroke-linecap="butt"/><path d="M268.30467,174.05798c0,2.21382 -1.71829,4.00847 -3.83789,4.00847c-2.11961,0 -3.83788,-1.79465 -3.83788,-4.00847c0,-2.21382 1.71827,-4.00847 3.83788,-4.00847c2.11961,0 3.83789,1.79465 3.83789,4.00847z" fill="#ff0000" stroke="none" stroke-width="0" stroke-linecap="butt"/><path d="M267.63735,203.1432l-73.58645,0.95879" fill="none" stroke="#000000" stroke-width="2.5" stroke-linecap="round"/><path d="M206.51505,200.26686" fill="none" stroke="#ffffff" stroke-width="2.5" stroke-linecap="round"/></g></g></svg>